<svg width="54" height="54" viewBox="0 0 54 54" fill="none" xmlns="http://www.w3.org/2000/svg">
<circle cx="26.8875" cy="26.8875" r="26.8875" fill="#2D2D2D"/>
<path d="M30.8011 11C31.4051 11.6711 32.0136 12.3363 32.6131 13.0134C34.6801 15.3454 36.741 17.6833 38.8117 20.0103C39.0135 20.2368 39.0958 20.4718 39.095 20.7905C39.089 27.3504 39.0868 33.9103 39.0943 40.4703C39.0958 41.7128 38.6592 42.6383 37.6403 43.137C37.3256 43.2909 36.9548 43.3652 36.6094 43.3669C31.1891 43.3805 25.7694 43.3788 20.349 43.3754C18.8704 43.3745 17.8403 42.2005 17.838 40.5176C17.8336 36.9 17.8365 33.2832 17.8365 29.6655C17.8365 29.5294 17.8365 29.3942 17.8365 29.2226C17.7177 29.215 17.619 29.204 17.5203 29.204C16.6524 29.2023 15.7853 29.204 14.9174 29.2032C14.3299 29.2023 14.0054 28.8583 14.0039 28.2007C13.9987 25.8383 13.9987 23.4758 14.0039 21.1133C14.0054 20.4515 14.3029 20.1253 14.8853 20.1227C15.7434 20.1185 16.6016 20.1227 17.4598 20.121C17.8358 20.121 17.8365 20.1193 17.8365 19.6823C17.8365 17.7527 17.8336 15.8221 17.838 13.8924C17.8403 12.9179 18.1318 12.0811 18.8719 11.535C19.1664 11.3178 19.5342 11.2257 19.8691 11.0803C19.9461 11.0465 20.0283 11.027 20.1083 11.0008C23.6718 11.0008 27.2361 11.0008 30.7996 11.0008L30.8011 11ZM18.5774 29.2023C18.5774 29.379 18.5774 29.4939 18.5774 29.6089C18.5774 33.268 18.5938 36.927 18.5669 40.5861C18.5594 41.6443 19.3286 42.5547 20.3101 42.5496C25.7477 42.5251 31.1861 42.5242 36.6236 42.5504C37.5797 42.5547 38.3908 41.701 38.3871 40.5387C38.3677 34.1386 38.3781 27.7375 38.3781 21.3373C38.3781 21.0562 38.249 20.9156 37.9909 20.9156C35.9853 20.9156 33.9796 20.8894 31.9747 20.9274C31.118 20.9435 30.3369 20.2123 30.3563 19.0873C30.3944 16.8212 30.3675 14.5534 30.3675 12.2865C30.3675 11.863 30.3668 11.8621 29.9818 11.8621C26.7547 11.8621 23.5268 11.8807 20.2997 11.8512C19.3204 11.8419 18.5519 12.7657 18.5684 13.7952C18.6005 15.7562 18.5774 17.718 18.5774 19.679C18.5774 19.9725 18.7112 20.1199 18.9788 20.121C22.327 20.121 25.676 20.121 29.0242 20.1219C29.6551 20.1219 29.9452 20.4524 29.9452 21.1649C29.9459 23.4741 29.9452 25.7833 29.9452 28.0925C29.9452 28.8735 29.6529 29.2023 28.9592 29.2023C25.6296 29.2023 22.2993 29.2023 18.9698 29.2023H18.5774ZM20.2705 24.6549C20.2705 25.3184 20.266 25.9811 20.272 26.6446C20.2765 27.0977 20.4402 27.2777 20.8334 27.2811C21.2244 27.2845 21.6161 27.2921 22.0063 27.2786C22.8809 27.2473 23.6277 26.4528 23.6516 25.5196C23.6666 24.9415 23.6658 24.3616 23.6516 23.7826C23.6307 22.9458 22.9557 22.1217 22.2253 22.06C21.7619 22.0211 21.2947 22.0237 20.8304 22.033C20.4058 22.0414 20.2735 22.2105 20.2705 22.6973C20.2668 23.3499 20.2698 24.0024 20.2705 24.6549ZM16.5627 24.6617C16.5627 25.3565 16.5598 26.0513 16.5642 26.7461C16.5657 27.0571 16.7407 27.2726 16.9754 27.2743C17.2109 27.276 17.385 27.0622 17.3888 26.7503C17.394 26.3293 17.4045 25.9076 17.3858 25.4875C17.3738 25.217 17.4366 25.1063 17.693 25.1266C18.0077 25.1511 18.3262 25.1443 18.6424 25.1274C19.3526 25.0902 19.9326 24.398 19.9424 23.5924C19.9513 22.8436 19.4109 22.1048 18.774 22.06C18.1991 22.0194 17.6205 22.0254 17.0434 22.0372C16.6868 22.044 16.565 22.2088 16.5635 22.6094C16.5612 23.2941 16.5635 23.9779 16.5635 24.6625L16.5627 24.6617ZM24.0097 24.6566C24.0097 25.321 24.0082 25.9853 24.0097 26.6497C24.0112 27.0368 24.1704 27.2701 24.4306 27.2752C24.684 27.2802 24.8604 27.0419 24.8694 26.6607C24.8769 26.3446 24.8694 26.0276 24.8724 25.7115C24.8776 25.0311 24.8163 25.1401 25.371 25.1325C25.7627 25.1274 26.1544 25.1367 26.5461 25.1291C26.8145 25.124 26.9931 24.9465 27.0111 24.6896C27.0305 24.4157 26.869 24.212 26.588 24.1698C26.496 24.1554 26.4018 24.1588 26.3084 24.1588C25.907 24.1571 25.5063 24.1537 25.1049 24.1588C24.9419 24.1613 24.8626 24.0979 24.8701 23.9027C24.8783 23.7023 24.8813 23.5012 24.8686 23.3017C24.8537 23.0608 24.921 22.9678 25.1512 22.9746C25.729 22.9932 26.3076 22.983 26.8862 22.9796C27.186 22.978 27.3848 22.7954 27.3946 22.5232C27.4043 22.2519 27.2189 22.0397 26.9139 22.0347C26.1118 22.0211 25.3097 22.0186 24.5076 22.033C24.1435 22.0397 24.0112 22.2172 24.009 22.6297C24.006 23.3042 24.0082 23.9796 24.0082 24.6549L24.0097 24.6566Z" fill="#7CE1D6"/>
<path d="M28.5002 32.0964C30.8698 32.0964 33.2388 32.0964 35.6085 32.0981C35.7176 32.0981 35.8567 32.0846 35.9299 32.1514C36.0316 32.2435 36.14 32.4049 36.1415 32.5377C36.1422 32.6526 36.0137 32.7955 35.912 32.8774C35.8387 32.9366 35.7154 32.929 35.6145 32.929C30.8571 32.9315 26.0998 32.9315 21.3425 32.929C21.2416 32.929 21.1145 32.94 21.0457 32.88C20.9411 32.7887 20.814 32.6391 20.8132 32.514C20.8132 32.3864 20.9366 32.2334 21.0397 32.1404C21.1063 32.0804 21.2348 32.0981 21.3358 32.0981C23.7234 32.0964 26.1118 32.0964 28.4994 32.0964H28.5002Z" fill="#7CE1D6"/>
<path d="M28.4501 38.7409C30.8378 38.7409 33.2261 38.7409 35.6138 38.7426C35.7147 38.7426 35.8425 38.7249 35.9098 38.7849C36.0145 38.8779 36.14 39.0308 36.1393 39.1576C36.1393 39.2827 36.0092 39.4323 35.9046 39.5236C35.835 39.5845 35.7087 39.5735 35.6078 39.5735C30.8505 39.5752 26.0931 39.5752 21.3366 39.5752C21.2715 39.5752 21.2042 39.5794 21.1415 39.565C20.9284 39.516 20.7759 39.4011 20.7968 39.1196C20.8163 38.8593 20.9695 38.7629 21.1751 38.7435C21.2865 38.7333 21.3986 38.7409 21.5107 38.7409C23.8244 38.7409 26.1372 38.7409 28.4509 38.7409H28.4501Z" fill="#7CE1D6"/>
<path d="M28.4688 36.2323C26.0633 36.2323 23.6577 36.2323 21.2514 36.2323C20.9426 36.2323 20.8051 36.1173 20.7954 35.8595C20.7864 35.6228 20.8858 35.4791 21.0959 35.447C21.1788 35.4343 21.2633 35.4394 21.347 35.4394C26.0932 35.4394 30.8393 35.4394 35.5854 35.4394C35.6691 35.4394 35.7536 35.436 35.8365 35.4462C36.0451 35.4707 36.158 35.6059 36.1543 35.8434C36.1505 36.081 36.0309 36.2094 35.8246 36.2297C35.7319 36.239 35.6385 36.2339 35.545 36.2339C33.1858 36.2339 30.8266 36.2339 28.4673 36.2339L28.4688 36.2323Z" fill="#7CE1D6"/>
<path d="M21.1347 24.6296C21.1347 24.1875 21.1444 23.7455 21.131 23.3051C21.1242 23.0684 21.1736 22.9484 21.4075 22.9788C21.5638 22.9991 21.7237 22.9814 21.8815 22.9831C22.4481 22.9881 22.8077 23.3727 22.8264 24.0143C22.8383 24.4343 22.8338 24.8553 22.8271 25.2762C22.8166 25.9254 22.4048 26.3252 21.8897 26.3099C21.1347 26.2871 21.1347 26.3108 21.1347 25.4495C21.1347 25.1765 21.1347 24.9026 21.1347 24.6296Z" fill="#7CE1D6"/>
<path d="M18.0863 24.1571C17.3881 24.1596 17.4015 24.1596 17.3836 23.3567C17.3761 23.0405 17.4696 22.9535 17.7327 22.978C17.9921 23.0017 18.2552 22.9771 18.5161 22.9856C18.8547 22.9966 19.0842 23.2442 19.0827 23.584C19.0812 23.9179 18.8697 24.141 18.5348 24.1571C18.386 24.1639 18.2365 24.1579 18.087 24.1579L18.0863 24.1571Z" fill="#7CE1D6"/>
</svg>
